<svg version="1.1" id="Layer_1" xmlns="http://www.w3.org/2000/svg" xmlns:xlink="http://www.w3.org/1999/xlink" x="0px" y="0px"
	 width="100%" viewBox="0 0 1024 960" enable-background="new 0 0 1024 960" xml:space="preserve">
<path fill="#000000" opacity="1.000000" stroke="none" 
	d="
M70.961143,602.953064 
	C63.134594,574.351685 58.755688,545.598755 56.683311,516.460632 
	C53.339256,469.442444 56.922386,422.955780 67.885498,377.122253 
	C81.358788,320.794495 104.472504,268.768433 137.597565,221.126709 
	C167.302902,178.403366 203.495453,142.105988 245.258743,111.384399 
	C295.523438,74.409081 351.097778,48.664936 411.984039,34.495686 
	C449.952972,25.659687 488.345062,20.942991 527.344849,21.877188 
	C563.420471,22.741343 599.018738,27.385942 634.078369,36.042377 
	C702.504639,52.937244 763.862305,83.908867 818.118469,128.825363 
	C860.905518,164.247086 896.042175,206.170792 923.708923,254.374802 
	C948.118652,296.904053 964.914734,342.293396 975.587524,390.073425 
	C984.181702,428.547760 986.645081,467.533875 984.926941,506.760498 
	C982.232422,568.278137 967.078979,626.836670 940.636719,682.366699 
	C922.207397,721.069092 898.788452,756.594910 870.218201,788.659424 
	C832.263977,831.255798 788.349731,866.340515 737.874573,892.955933 
	C690.050049,918.173706 639.397400,935.192749 585.819763,942.973694 
	C549.761414,948.210449 513.569275,949.107300 477.247833,945.475708 
	C423.775635,940.129272 372.323547,927.242859 323.476532,904.685974 
	C280.958405,885.051697 242.584183,859.125916 207.987411,827.541931 
	C149.998749,774.602966 107.675705,711.269165 81.391571,637.270691 
	C77.435204,626.132141 73.718681,614.896362 70.961143,602.953064 
M759.322571,97.206985 
	C720.895691,74.271271 680.214783,56.759205 636.786560,45.638599 
	C608.639771,38.431068 580.113525,33.611141 551.182556,31.465593 
	C524.232605,29.466949 497.313568,30.229675 470.376129,33.005440 
	C436.388824,36.507656 403.370728,44.164036 371.144073,55.083008 
	C320.318359,72.303680 274.186279,98.180206 232.450150,131.983322 
	C196.431793,161.155441 165.453079,194.882553 139.685608,233.369949 
	C115.138725,270.034210 96.584167,309.569092 83.839020,351.813019 
	C71.846230,391.563263 65.025169,432.160004 64.046211,473.705170 
	C63.625786,491.547516 64.647682,509.315552 66.047844,527.102051 
	C68.583313,559.310486 75.311340,590.646301 84.859070,621.413757 
	C99.155830,667.484924 120.956879,709.828247 148.869949,749.094421 
	C175.142456,786.052856 206.541306,818.103271 242.398285,845.720642 
	C286.831970,879.943909 335.909790,904.978577 390.067993,920.220764 
	C427.149384,930.656860 464.831329,936.824585 503.197968,938.593018 
	C535.570007,940.085144 567.724548,937.327515 599.685486,931.730225 
	C638.488892,924.934631 675.674805,913.173645 711.407715,896.735657 
	C754.264587,877.020325 793.081665,851.209167 828.141479,819.608093 
	C877.604553,775.024597 915.021301,721.872375 941.078491,660.783081 
	C968.519592,596.449402 980.102844,529.255615 976.064148,459.325745 
	C974.426086,430.962158 970.534851,403.037354 963.572266,375.498840 
	C945.863403,305.456268 913.572388,242.904831 866.702209,188.014740 
	C836.063721,152.133652 800.160278,122.262985 759.322571,97.206985 
z"/>
<path fill="#000000" opacity="1.000000" stroke="none" 
	d="
M434.769653,414.104584 
	C431.005035,414.781738 427.263672,415.788574 423.470154,416.056183 
	C418.235443,416.425446 416.352142,413.247162 419.095459,408.761230 
	C423.203064,402.044495 429.043518,396.691772 433.935852,390.585846 
	C435.890533,388.146332 437.834198,385.697906 439.332336,382.714050 
	C433.928864,385.850769 428.568237,389.065186 423.097046,392.078949 
	C421.355225,393.038422 419.175201,395.192047 417.357849,392.814758 
	C415.788391,390.761749 418.087860,389.179413 419.349182,387.757599 
	C426.877594,379.271301 434.785248,371.162781 443.727386,364.139282 
	C445.479858,362.762817 446.811798,361.141388 447.860901,359.213623 
	C451.219330,353.042358 456.100159,347.847046 459.668701,341.921844 
	C466.437103,330.683472 474.780304,320.854156 483.598022,311.305603 
	C491.286407,302.980042 498.946167,294.624512 507.768433,287.457642 
	C512.981140,283.223053 515.987366,277.493286 518.898621,271.659027 
	C522.447693,264.546600 526.938599,258.288910 534.013000,254.146225 
	C543.596802,248.533966 554.185181,248.979019 562.849426,255.971954 
	C566.967651,259.295715 571.972412,259.907196 576.706360,261.321136 
	C581.767395,262.832794 586.335571,264.999847 589.991699,268.883240 
	C591.027405,269.983337 592.313354,271.130890 591.810059,272.746918 
	C591.235596,274.591248 589.407104,274.127136 587.956116,274.217926 
	C582.142212,274.581665 576.323425,274.881683 570.515991,275.329437 
	C564.492371,275.793915 558.218750,282.899628 559.515564,289.139374 
	C564.672913,313.953217 552.382507,333.694580 541.421204,353.870667 
	C538.890259,358.529327 533.770020,360.205444 529.667114,362.840851 
	C524.067017,366.437988 521.998230,371.783997 520.116821,377.512909 
	C519.663391,378.893677 519.863220,380.102722 520.825928,381.230896 
	C523.959106,384.902679 526.989258,388.665314 530.203186,392.264191 
	C532.019348,394.297913 534.403809,395.916443 537.180603,395.682983 
	C543.520813,395.149872 549.071960,396.419861 553.226318,401.859406 
	C551.111084,407.324127 547.364868,409.847900 541.341248,409.074341 
	C524.240662,406.878265 507.180664,406.285767 490.120819,409.506836 
	C485.976257,410.289337 481.596191,406.854858 479.081390,400.602539 
	C488.354767,402.294647 495.351715,397.253967 503.376343,394.195343 
	C498.904633,385.464081 493.000793,379.107971 483.121277,377.519470 
	C481.516724,377.261475 480.233032,378.164154 478.863708,378.721558 
	C471.210419,381.836823 465.472290,387.329987 460.470428,393.693512 
	C455.510590,400.003662 450.261017,406.004120 443.030457,410.819275 
	C439.986328,412.164276 437.377991,413.134430 434.769653,414.104584 
M510.658630,390.910461 
	C513.404846,394.142090 516.502747,396.228119 521.359253,394.039337 
	C518.298279,387.714203 513.038452,383.699493 508.068634,379.428772 
	C506.983490,378.496307 506.058746,376.887421 504.349365,378.400848 
	C502.666840,379.890564 503.476074,381.390472 504.512390,382.799255 
	C506.380402,385.338776 508.288239,387.848999 510.658630,390.910461 
z"/>
<path fill="#000000" opacity="1.000000" stroke="none" 
	d="
M360.128174,555.951660 
	C349.953308,550.132019 342.348480,542.021606 335.058472,533.506653 
	C328.556824,525.912598 326.275177,517.952942 331.923096,508.885742 
	C332.360962,508.182739 332.731171,507.418701 333.011597,506.639404 
	C338.233978,492.124725 348.790466,483.137115 362.267181,476.187927 
	C388.770294,462.521881 416.374725,452.154449 445.304474,445.059113 
	C451.498535,443.539948 456.625610,443.875305 461.360809,448.473663 
	C464.456543,451.479858 468.045685,453.971588 471.322418,456.799591 
	C474.091064,459.189117 474.755096,461.880524 472.408997,465.109833 
	C466.341492,473.461548 460.448700,481.940765 454.331940,490.255646 
	C453.190063,491.807800 451.502563,493.168488 449.776947,494.049957 
	C421.106628,508.694977 397.775787,529.826965 376.815369,553.861694 
	C376.705902,553.987244 376.591797,554.108765 376.479919,554.232178 
	C369.529755,561.899780 369.171600,561.942871 360.128174,555.951660 
z"/>
<path fill="#000000" opacity="1.000000" stroke="none" 
	d="
M581.179382,490.865204 
	C574.491821,481.708801 568.060425,472.808289 561.612061,463.920166 
	C559.724243,461.318054 560.044128,458.956512 562.328735,456.815826 
	C565.121704,454.198822 567.911438,451.575836 570.776001,449.038361 
	C575.834534,444.557434 581.348755,443.338470 588.267639,444.665558 
	C622.217957,451.177490 653.465393,464.320557 682.983704,481.973724 
	C689.320129,485.763214 694.092163,490.897095 697.048035,497.702393 
	C699.565735,503.498871 702.173462,509.256256 704.703430,515.047485 
	C706.590759,519.367493 706.107544,523.471252 703.463257,527.359192 
	C696.578857,537.481323 688.552734,546.564087 678.615112,553.772217 
	C671.376526,559.022583 668.166260,558.574585 662.647827,551.534851 
	C643.439697,527.031372 619.359070,508.950134 590.897278,496.535461 
	C587.563416,495.081268 584.037781,493.883850 581.179382,490.865204 
z"/>
<path fill="#000000" opacity="1.000000" stroke="none" 
	d="
M553.786621,542.264038 
	C561.591919,555.291321 569.286865,567.961670 576.782166,580.748962 
	C580.672302,587.385803 579.969543,588.725464 572.655334,590.735107 
	C555.317139,595.498840 537.542114,598.502563 520.323608,603.745483 
	C518.530701,604.291321 516.706238,604.400452 514.898132,603.900269 
	C498.524902,599.370483 481.932068,595.758850 465.410858,591.836182 
	C453.864624,589.094788 453.669556,588.209534 459.591644,578.131836 
	C468.195190,563.490967 477.160919,549.063416 485.902893,534.503357 
	C488.116608,530.816345 491.077545,528.832764 495.451691,528.210876 
	C510.077606,526.131287 524.654175,526.525452 539.278687,528.126343 
	C543.682983,528.608398 546.678345,530.511841 548.740479,534.387939 
	C550.143372,537.024780 551.961243,539.440857 553.786621,542.264038 
z"/>
<path fill="#000000" opacity="1.000000" stroke="none" 
	d="
M606.334717,583.453125 
	C601.179443,584.409180 596.442322,585.321655 591.686829,586.126404 
	C588.024109,586.746277 585.266541,585.488281 583.300232,582.184204 
	C573.343811,565.453918 563.393860,548.718323 553.238464,532.108826 
	C550.773315,528.077087 551.293518,525.002075 554.561157,521.974121 
	C561.885193,515.187195 569.163696,508.350891 576.515686,501.594513 
	C579.468384,498.881012 582.630737,498.379486 586.596558,499.968292 
	C614.565918,511.173553 637.951782,528.530518 656.989258,551.814636 
	C664.490234,560.988831 664.038818,562.639587 653.493286,567.645569 
	C638.528503,574.749512 622.830383,579.619446 606.334717,583.453125 
z"/>
<path fill="#000000" opacity="1.000000" stroke="none" 
	d="
M483.985291,461.514313 
	C502.609344,458.929169 520.889587,459.361420 539.180054,460.302429 
	C539.345581,460.310944 539.515808,460.390839 539.673218,460.367004 
	C550.910767,458.665497 557.570435,464.933685 563.073975,473.543884 
	C566.475952,478.866302 570.216858,483.976990 573.915771,489.103210 
	C576.490479,492.671417 576.327087,495.569000 572.872192,498.620087 
	C565.143372,505.445526 557.612366,512.496277 550.049744,519.507996 
	C546.426514,522.867249 542.605713,524.316833 537.378906,523.450195 
	C523.005615,521.067200 508.535400,521.675293 494.137451,523.591431 
	C491.046265,524.002808 488.638977,523.335083 486.399658,521.245117 
	C478.250824,513.639771 470.106232,506.027557 461.829681,498.562408 
	C458.844696,495.870117 458.191833,493.161102 460.550659,489.866852 
	C466.455353,481.620453 472.334869,473.355377 478.325623,465.171814 
	C479.597412,463.434479 481.289032,461.996429 483.985291,461.514313 
z"/>
<path fill="#000000" opacity="1.000000" stroke="none" 
	d="
M387.324524,548.341797 
	C404.596832,530.064087 423.252258,514.086731 445.099548,502.077271 
	C452.847778,497.818085 452.893860,497.617493 459.375458,503.366486 
	C466.227295,509.443909 472.832977,515.797913 479.619446,521.950317 
	C483.122589,525.126160 483.632904,528.392212 481.120270,532.532166 
	C471.181519,548.907654 461.400909,565.379089 451.566254,581.817749 
	C449.138275,585.876160 445.956940,587.249573 441.067902,586.153625 
	C422.199005,581.923889 403.357819,577.670654 385.675903,569.538025 
	C375.203308,564.721313 374.798187,562.830017 382.114899,554.211975 
	C383.731689,552.307678 385.424774,550.468140 387.324524,548.341797 
z"/>
<path fill="#000000" opacity="1.000000" stroke="none" 
	d="
M452.629089,636.224121 
	C453.732361,636.398987 454.387024,636.535339 455.048523,636.593201 
	C465.775452,637.530945 465.788910,637.653015 464.085907,648.233154 
	C462.374542,658.865112 458.248932,668.330261 450.936462,676.274780 
	C433.980469,694.696472 413.384155,706.889282 388.695740,711.540955 
	C377.377228,713.673584 370.374725,706.152710 372.394073,694.747375 
	C376.832123,669.681458 388.952820,648.277222 404.181976,628.366943 
	C406.752960,625.005676 409.643677,624.447815 413.785919,625.857239 
	C426.342651,630.129761 438.653534,635.466187 452.629089,636.224121 
z"/>
<path fill="#000000" opacity="1.000000" stroke="none" 
	d="
M612.765991,628.684937 
	C627.828125,624.312683 625.383179,624.398193 632.938416,635.184326 
	C645.079651,652.517517 654.322815,671.222778 658.525391,692.143005 
	C658.979858,694.405273 659.202820,696.775146 659.103699,699.076660 
	C658.707825,708.265564 652.491272,713.312561 643.276367,711.581482 
	C622.662537,707.708984 604.808105,698.132324 588.903320,684.665771 
	C578.363831,675.742065 570.148682,665.321045 567.326294,651.408020 
	C566.830444,648.963928 566.547241,646.477478 566.095703,644.023438 
	C565.294128,639.667847 567.037170,636.990173 571.477417,637.031799 
	C585.715515,637.165100 599.061462,633.108276 612.765991,628.684937 
z"/>
<path fill="#000000" opacity="1.000000" stroke="none" 
	d="
M802.118896,622.898438 
	C796.231934,629.704956 788.380371,629.173218 781.066040,628.796570 
	C766.096680,628.025818 751.281006,625.676880 736.655823,622.301147 
	C719.223450,618.277527 702.463989,612.346313 686.429443,604.399536 
	C680.806396,601.612610 680.763977,600.297119 685.964905,596.826294 
	C690.259277,593.960449 694.467834,590.965515 698.774963,588.119446 
	C709.841614,580.806885 718.608887,571.553467 724.401062,559.440613 
	C727.830383,552.268799 728.125610,552.584656 735.390259,555.232239 
	C756.561951,562.948059 772.843384,577.170166 787.270325,593.899048 
	C791.621399,598.944275 796.145081,603.892395 799.274536,609.828857 
	C801.346741,613.759766 803.756775,617.729309 802.118896,622.898438 
z"/>
<path fill="#000000" opacity="1.000000" stroke="none" 
	d="
M283.698914,624.920349 
	C272.588867,626.663269 261.902588,628.292603 251.071167,628.730652 
	C246.046036,628.933899 241.041580,628.795227 236.272858,627.172913 
	C231.139664,625.426636 229.408417,621.772766 230.842255,616.527771 
	C231.685211,613.444275 233.110901,610.611328 235.052048,608.080444 
	C249.754456,588.911377 266.154327,571.619202 287.873291,560.165710 
	C292.465088,557.744202 297.266052,555.935608 302.176819,554.322021 
	C305.189850,553.332092 307.397644,553.833130 308.635193,556.965088 
	C315.995483,575.592163 331.359772,586.405090 347.342316,596.616943 
	C348.986511,597.667542 351.413727,598.334045 351.318146,600.652039 
	C351.221405,602.997437 348.669250,603.379700 346.975189,604.274902 
	C327.203735,614.722351 306.037079,620.925232 283.698914,624.920349 
z"/>
<path fill="#000000" opacity="1.000000" stroke="none" 
	d="
M472.137482,450.891541 
	C469.505402,448.817200 467.127258,446.996155 464.795044,445.118103 
	C461.485535,442.453125 461.385132,439.663879 464.538177,436.767181 
	C469.805267,431.928192 475.014252,427.024902 480.338409,422.249847 
	C482.074707,420.692596 483.873138,419.318726 484.939636,417.114288 
	C486.064819,414.788483 488.391144,414.198029 490.762512,413.807068 
	C507.826416,410.993835 524.905334,411.714081 541.991028,413.547485 
	C543.651123,413.725586 545.451050,413.778900 546.578613,415.174347 
	C552.987915,423.106384 561.576355,428.783813 568.352478,436.337128 
	C572.098389,440.512634 572.070374,442.096863 567.768616,445.668915 
	C567.512939,445.881256 567.182068,446.025299 566.979675,446.276428 
	C558.706787,456.538116 548.189880,457.214050 535.779724,455.759460 
	C519.311096,453.829163 502.527710,454.072296 486.034790,456.927734 
	C479.909821,457.988190 476.476746,454.145050 472.137482,450.891541 
z"/>
<path fill="#000000" opacity="1.000000" stroke="none" 
	d="
M570.083130,622.223999 
	C572.317871,629.789429 571.658020,631.099609 564.291138,632.338745 
	C549.291138,634.861816 534.682434,638.651550 520.813354,645.008789 
	C518.245056,646.186035 515.746155,646.334900 513.117859,645.143127 
	C498.477081,638.503906 483.275940,633.849426 467.249939,631.954529 
	C462.439423,631.385803 461.484528,629.443970 462.854248,624.675354 
	C464.951050,617.375427 469.045807,611.057861 472.906097,604.656799 
	C475.083435,601.046265 478.751953,600.539734 482.616272,601.343140 
	C491.904144,603.274170 501.270813,605.010010 510.216156,608.181824 
	C515.261047,609.970581 519.920105,609.746155 524.810547,608.154419 
	C533.364685,605.370239 542.087036,603.250244 550.934143,601.589539 
	C556.042114,600.630737 559.669250,602.241760 562.167908,606.794495 
	C564.886658,611.748352 568.170410,616.404297 570.083130,622.223999 
z"/>
<path fill="#000000" opacity="1.000000" stroke="none" 
	d="
M785.000000,631.967163 
	C807.149109,631.950012 828.798218,631.915527 850.447327,631.936646 
	C852.864502,631.939026 856.039978,631.360107 856.692749,634.592590 
	C857.436890,638.277710 858.095947,642.323853 856.080627,645.776184 
	C854.875061,647.841248 852.137329,647.113892 850.024719,647.116272 
	C819.049744,647.151794 788.074829,647.154907 757.099854,647.154724 
	C723.127319,647.154541 689.153992,647.029297 655.182983,647.253906 
	C649.844482,647.289185 646.338013,645.847473 644.058472,640.973267 
	C642.818909,638.322693 640.921509,635.979858 638.332642,631.966125 
	C687.953613,631.966125 736.226807,631.966125 785.000000,631.967163 
z"/>
<path fill="#000000" opacity="1.000000" stroke="none" 
	d="
M363.000000,631.953979 
	C373.167175,632.224609 382.891724,631.395325 393.928406,632.586426 
	C390.414520,637.781433 387.877594,641.810425 385.041473,645.616394 
	C383.445465,647.758179 380.786377,647.151917 378.499634,647.152344 
	C329.718506,647.161499 280.937378,647.145752 232.156250,647.137329 
	C215.673935,647.134460 199.191574,647.154785 182.709335,647.119080 
	C180.448746,647.114197 177.469284,647.602112 177.106827,644.417175 
	C176.685410,640.714233 175.804199,636.765991 177.979568,633.285828 
	C178.712784,632.112854 180.383484,632.436523 181.717957,632.433105 
	C241.978653,632.279053 302.239319,632.116333 363.000000,631.953979 
z"/>
<path fill="#000000" opacity="1.000000" stroke="none" 
	d="
M434.506775,414.309753 
	C437.377991,413.134430 439.986328,412.164276 442.819763,411.069519 
	C451.389923,408.661560 459.723083,406.333557 468.084778,404.113037 
	C472.482361,402.945190 478.742706,406.827759 480.366486,411.575043 
	C481.872681,415.978607 479.390259,419.980377 474.319855,422.437225 
	C469.631134,424.709198 466.128937,428.664886 462.450806,432.248260 
	C458.397339,436.197327 453.877075,438.755615 448.222778,439.851471 
	C418.067169,445.695892 389.695557,456.529877 362.660431,470.995209 
	C359.827332,472.511108 359.816742,472.491333 356.453674,472.540833 
	C355.687775,469.386902 358.124237,467.743683 359.772644,465.890533 
	C380.169708,442.960022 404.473999,425.653534 433.356079,414.972839 
	C433.666046,414.858215 433.948547,414.669189 434.506775,414.309753 
z"/>
<path fill="#000000" opacity="1.000000" stroke="none" 
	d="
M634.717163,432.218018 
	C651.809692,442.926758 666.929871,455.268738 679.140686,471.151733 
	C676.189209,473.508881 674.403809,472.050385 672.813049,471.108948 
	C644.935974,454.610748 614.615479,444.988556 582.976379,439.061035 
	C579.082153,438.331421 576.059692,436.351807 573.022827,433.794556 
	C567.842529,429.432495 564.259460,423.280121 556.801392,421.329803 
	C551.888794,420.045166 551.701904,412.771149 554.303528,408.358826 
	C557.877136,402.298218 562.211792,402.575500 568.034912,404.039215 
	C591.623108,409.968567 614.075867,418.448730 634.717163,432.218018 
z"/>
<path fill="#000000" opacity="1.000000" stroke="none" 
	d="
M639.704834,610.728271 
	C623.353271,618.319885 606.876526,624.554199 589.823120,629.150879 
	C582.925049,631.010315 580.567078,629.838318 577.181274,623.657166 
	C574.146240,618.116333 571.153931,612.537109 568.480042,606.817200 
	C565.356445,600.135559 566.427795,597.713135 573.510498,596.013977 
	C585.795532,593.066711 598.163940,590.466797 610.499634,587.731262 
	C612.609985,587.263306 614.750061,586.919556 616.844543,586.391785 
	C627.536499,583.697876 627.583191,583.647827 634.055725,592.838684 
	C636.446106,596.232910 638.646606,599.774475 640.727661,603.368164 
	C642.131592,605.792358 642.770935,608.382446 639.704834,610.728271 
z"/>
<path fill="#000000" opacity="1.000000" stroke="none" 
	d="
M461.562195,596.212280 
	C467.341522,599.110718 467.956665,600.593689 465.679138,606.160645 
	C462.900696,612.951965 459.012512,619.169006 455.413971,625.531067 
	C453.320496,629.232239 450.018463,630.038879 446.006409,629.422791 
	C437.708740,628.148682 430.032990,624.873474 422.208008,622.124695 
	C414.057251,619.261353 405.998322,616.116760 397.994751,612.860413 
	C391.219849,610.104065 390.377472,607.541992 394.243652,601.503296 
	C397.108002,597.029297 400.380493,592.817078 403.457336,588.478516 
	C405.736633,585.264465 408.929321,583.923462 412.615204,584.978882 
	C428.612793,589.559570 445.211517,591.473511 461.562195,596.212280 
z"/>
<path fill="#000000" opacity="1.000000" stroke="none" 
	d="
M409.001160,732.900024 
	C383.000977,732.987976 358.350525,738.907471 333.554688,743.827637 
	C332.738922,743.989502 331.925171,744.172913 331.123993,744.395020 
	C328.023743,745.254761 325.182800,744.961975 324.410248,741.359802 
	C323.636383,737.751526 326.258209,736.419495 329.294769,735.745300 
	C360.193665,728.885071 391.110291,722.203369 423.089905,723.760254 
	C443.112122,724.735046 462.678131,728.896912 482.349609,732.253845 
	C506.002258,736.290100 529.634949,740.221680 553.773621,738.926575 
	C554.602234,738.882080 555.463806,738.816650 556.263428,738.983826 
	C558.780823,739.510376 561.429993,740.250549 561.430481,743.413574 
	C561.430908,746.666748 559.144348,748.134644 556.137451,748.192627 
	C545.985168,748.388428 535.830383,748.696899 525.690247,747.723633 
	C497.665771,745.034058 470.229736,738.562134 442.369995,734.802612 
	C431.447083,733.328613 420.493164,732.908508 409.001160,732.900024 
z"/>
<path fill="#000000" opacity="1.000000" stroke="none" 
	d="
M569.810791,770.054199 
	C549.431946,773.044922 529.472473,774.881958 509.220520,773.380432 
	C482.854919,771.425781 457.263397,765.658020 431.789673,759.097778 
	C428.862885,758.343994 426.345459,756.599182 427.543945,753.009338 
	C428.702576,749.538879 431.491669,749.641602 434.555511,750.452026 
	C452.905518,755.305542 471.358398,759.709106 490.194244,762.267944 
	C521.685486,766.546204 552.926758,765.653442 583.786865,757.504272 
	C597.296692,753.936646 610.788147,750.299255 624.288391,746.695129 
	C625.252808,746.437683 626.207397,746.102722 627.189331,745.959534 
	C630.056885,745.541321 632.818848,745.957642 633.622192,749.155640 
	C634.487549,752.600891 631.885803,753.766357 629.124878,754.515991 
	C615.960938,758.090027 602.812500,761.722534 589.629211,765.223755 
	C583.197144,766.932007 576.700989,768.399048 569.810791,770.054199 
z"/>
<path fill="#000000" opacity="1.000000" stroke="none" 
	d="
M353.484741,108.421326 
	C355.120422,109.235527 356.450378,109.862694 357.906982,110.549568 
	C360.577087,107.809128 360.512939,104.294067 361.234589,101.187279 
	C362.234253,96.883583 365.196777,95.230949 368.975769,94.439873 
	C372.085052,93.788994 373.498413,95.243927 372.789612,98.327812 
	C371.894989,102.220375 370.903870,106.099892 369.734589,109.917725 
	C368.471222,114.042633 369.149139,116.915466 373.612000,118.600334 
	C376.857635,119.825653 379.920624,121.610466 382.915344,123.396790 
	C384.759216,124.496643 387.953125,125.306755 386.619293,128.343018 
	C385.267731,131.419586 382.512970,133.392700 378.892029,132.236053 
	C375.900238,131.280380 372.972534,129.967606 370.227661,128.434814 
	C366.747162,126.491219 364.991272,127.500557 364.164948,131.152908 
	C363.761658,132.935669 363.096863,134.661255 362.727509,136.449295 
	C361.808228,140.899628 360.030487,144.368790 354.701019,144.325226 
	C354.081543,144.320160 353.254913,144.554504 352.868591,144.986053 
	C348.660889,149.685959 344.234375,149.991516 339.363342,145.979431 
	C338.012146,144.866486 336.519409,145.575821 335.175873,146.375244 
	C333.028473,147.652954 330.946045,149.071030 328.699066,150.142120 
	C325.899719,151.476532 324.685120,153.481308 325.158020,156.532471 
	C325.540588,159.000992 324.969940,161.135284 323.043976,162.858673 
	C321.508972,164.232239 319.879669,165.540451 317.716278,164.947845 
	C315.363953,164.303513 315.098053,162.105927 314.889587,160.115997 
	C313.675537,148.528580 312.590485,136.927185 311.296814,125.348946 
	C310.928619,122.053665 312.810516,120.440063 315.119629,118.978424 
	C317.707611,117.340263 319.870728,118.616035 321.979248,120.142326 
	C329.802643,125.805412 337.628113,131.465775 345.477051,137.093353 
	C347.056213,138.225586 348.741425,139.209961 350.896942,140.596512 
	C352.441040,134.503693 353.790680,129.069733 355.203766,123.652336 
	C355.823242,121.277473 354.228302,120.328575 352.607910,119.412971 
	C348.982819,117.364594 345.309570,115.401093 341.693817,113.336632 
	C340.015717,112.378487 337.681732,111.710732 338.075256,109.165817 
	C338.414886,106.969437 340.440094,106.061378 342.250702,105.206795 
	C346.736694,103.089508 349.807373,106.238609 353.484741,108.421326 
M327.637299,138.877686 
	C327.665344,135.668076 324.971954,135.358337 322.714355,133.927628 
	C322.052734,136.656326 322.199066,138.777283 323.500397,140.734085 
	C325.153839,140.937027 326.117249,139.905838 327.637299,138.877686 
z"/>
<path fill="#000000" opacity="1.000000" stroke="none" 
	d="
M388.408020,600.403870 
	C382.011902,607.230835 381.450745,607.428284 373.101532,603.849426 
	C360.959198,598.644653 349.676392,591.913269 339.131042,583.981506 
	C333.810944,579.979919 333.504700,577.101440 337.747253,571.874695 
	C340.575836,568.389893 343.734772,565.173523 346.741150,561.832825 
	C349.880737,558.344116 353.629608,557.703247 357.509827,560.170288 
	C369.214325,567.611816 381.583832,573.628174 394.495789,578.684021 
	C400.438477,581.010864 400.912018,583.411621 397.356018,588.574951 
	C394.622101,592.544678 391.566498,596.292847 388.408020,600.403870 
z"/>
<path fill="#000000" opacity="1.000000" stroke="none" 
	d="
M634.818909,584.517883 
	C634.415161,580.884888 636.988403,579.844238 639.250427,579.039612 
	C652.476929,574.335388 665.007507,568.185059 677.166565,561.227722 
	C681.085999,558.985046 684.423157,559.544434 687.298462,563.126465 
	C690.314453,566.883728 694.159180,569.934570 696.682312,574.122009 
	C698.926208,577.846313 698.572815,581.150818 694.961609,583.735291 
	C683.713379,591.785583 672.302185,599.581055 659.296509,604.627686 
	C651.753113,607.554688 650.214233,607.078125 645.349731,600.685486 
	C641.512878,595.643555 638.016663,590.378174 634.818909,584.517883 
z"/>
<path fill="#000000" opacity="1.000000" stroke="none" 
	d="
M450.038727,779.830566 
	C473.179138,786.120972 496.241913,790.299255 519.881470,790.325928 
	C538.938721,790.347473 557.745239,788.045898 576.177734,783.046387 
	C577.142151,782.784790 578.085205,782.430603 579.060486,782.224915 
	C582.002197,781.604431 584.527588,782.318604 585.611145,785.295715 
	C586.830322,788.645569 584.552734,790.304749 581.832275,791.184387 
	C574.205505,793.650513 566.281189,794.824341 558.419434,796.232300 
	C519.681091,803.169739 481.821930,798.096375 444.346497,787.820496 
	C440.654419,786.808167 436.899353,786.021118 433.221954,784.961426 
	C430.425293,784.155457 428.231689,782.505249 429.061401,779.202332 
	C429.920166,775.783752 432.532654,774.941162 435.709167,775.796570 
	C440.367798,777.051147 444.994232,778.425354 450.038727,779.830566 
z"/>
<path fill="#000000" opacity="1.000000" stroke="none" 
	d="
M480.724854,717.384277 
	C473.269592,715.995178 466.252014,714.640442 459.226257,713.329468 
	C455.860687,712.701477 452.637024,711.523621 453.530579,707.391418 
	C454.414246,703.304810 457.821228,703.501526 461.183655,704.212769 
	C488.097443,709.905701 515.178772,713.856384 542.824951,712.747253 
	C561.864807,711.983337 580.509521,708.795959 598.907532,704.117432 
	C605.041687,702.557495 609.290710,704.971924 614.330078,709.257751 
	C569.954285,722.565674 525.940918,725.958069 480.724854,717.384277 
z"/>
<path fill="#000000" opacity="1.000000" stroke="none" 
	d="
M686.877686,723.007202 
	C702.273010,725.800598 717.114258,726.344482 731.594177,720.583923 
	C734.472412,719.438904 737.096008,719.667786 738.226318,722.794067 
	C739.380615,725.986816 737.134521,727.814026 734.483765,728.873840 
	C722.490845,733.668884 710.031494,735.242126 697.225525,733.770691 
	C684.170532,732.270752 671.328430,729.242676 658.112915,728.793701 
	C635.504456,728.025635 613.197205,729.570740 591.434143,736.204529 
	C589.684448,736.737854 587.983032,737.529846 586.090271,737.177368 
	C584.018005,736.791504 582.881042,735.502808 582.783020,733.397034 
	C582.655151,730.648865 584.210876,729.102417 586.625366,728.208069 
	C593.688599,725.591858 601.049377,724.140686 608.422791,722.813660 
	C634.429688,718.133240 660.443420,718.554443 686.877686,723.007202 
z"/>
<path fill="#000000" opacity="1.000000" stroke="none" 
	d="
M258.029785,677.137573 
	C244.552261,676.742676 231.637009,675.727722 218.839325,673.347717 
	C215.710312,672.765747 213.015274,671.837097 213.481018,668.225037 
	C213.963531,664.482910 216.986160,663.514465 220.267517,664.175110 
	C226.638687,665.457825 233.037994,666.354309 239.512558,666.960632 
	C265.455414,669.390015 291.005371,667.178162 316.281830,661.029175 
	C327.531006,658.292480 338.876831,656.959778 350.351349,659.813416 
	C352.613220,660.375854 354.953369,660.760803 356.832001,662.263062 
	C358.518890,663.612000 359.465790,665.317261 358.482727,667.512573 
	C357.569885,669.551025 355.762177,671.042603 353.721954,670.274231 
	C335.541351,663.426697 318.249512,670.598145 300.724731,673.512817 
	C286.735870,675.839478 272.711487,677.331360 258.029785,677.137573 
z"/>
<path fill="#000000" opacity="1.000000" stroke="none" 
	d="
M787.416016,697.547058 
	C771.085266,696.265198 755.751282,698.508301 741.154602,704.996460 
	C726.501892,711.509705 711.548889,711.804871 696.283752,707.642639 
	C687.776184,705.322998 679.244202,703.069946 670.328979,703.023804 
	C666.654907,703.004761 664.856201,701.351257 664.938049,697.520691 
	C665.026489,693.382202 667.871155,693.703491 670.541199,693.826721 
	C680.067139,694.266113 689.336243,696.327637 698.482239,698.810303 
	C712.496887,702.614563 726.039551,701.818176 739.449463,696.132507 
	C756.010010,689.110962 773.292480,686.569702 791.195312,688.910889 
	C793.486938,689.210571 795.797791,689.685730 797.976807,690.436340 
	C800.208191,691.205200 801.655884,692.921021 801.034912,695.454102 
	C800.383606,698.110657 798.467346,699.213013 795.754089,698.820251 
	C793.121765,698.439209 790.495056,698.020081 787.416016,697.547058 
z"/>
<path fill="#000000" opacity="1.000000" stroke="none" 
	d="
M301.781616,166.211426 
	C299.455475,163.035660 297.343964,160.147537 294.326996,156.020889 
	C294.326996,161.323303 294.398499,165.070923 294.308472,168.814667 
	C294.201416,173.269196 292.893738,174.119705 288.730591,172.677567 
	C285.363129,171.511047 282.220703,169.556885 277.855042,169.202301 
	C280.370148,174.368713 283.933075,177.885254 286.873016,181.806137 
	C289.122314,184.805954 289.242340,186.931473 285.957092,189.234695 
	C282.821625,191.432938 280.379181,191.748764 277.964325,188.295715 
	C272.435364,180.389786 266.755157,172.589783 261.196320,164.704498 
	C259.912720,162.883682 257.640625,160.857864 259.942932,158.592804 
	C262.441071,156.135071 264.801880,152.993744 269.344238,154.712463 
	C273.775116,156.389008 278.047150,158.693314 283.140717,159.302963 
	C284.347931,154.636108 283.560944,150.164062 283.690094,145.752014 
	C283.765076,143.191940 284.056946,140.809937 285.896790,138.815506 
	C289.691437,134.702011 292.576202,134.916855 295.819946,139.457581 
	C301.040955,146.766159 306.364929,154.001160 311.621307,161.284607 
	C315.146240,166.168869 314.945007,167.977768 311.059937,170.813278 
	C306.616730,174.056152 304.900940,170.578705 302.864929,167.718185 
	C302.575592,167.311661 302.285828,166.905426 301.781616,166.211426 
z"/>
<path fill="#000000" opacity="1.000000" stroke="none" 
	d="
M243.819855,690.355591 
	C269.173248,686.505554 293.171631,690.174438 316.780548,698.673035 
	C331.370209,703.924866 346.536346,707.291077 362.210083,706.744263 
	C367.732483,706.551514 369.068604,710.270203 371.273651,714.124939 
	C368.968842,716.024597 366.506744,716.013306 364.071350,716.011108 
	C345.574249,715.994446 327.558258,712.654724 310.327972,706.283691 
	C289.536194,698.595764 268.398193,696.387573 246.559036,699.097961 
	C243.740173,699.447754 240.574570,699.748962 239.427353,696.206787 
	C238.334641,692.832886 240.682831,691.413757 243.819855,690.355591 
z"/>
<path fill="#000000" opacity="1.000000" stroke="none" 
	d="
M783.488892,667.590271 
	C793.068054,667.837219 802.152832,669.457764 811.336365,668.099609 
	C814.411682,667.644775 817.656555,668.402588 818.152405,672.275024 
	C818.678406,676.382751 815.650208,677.156006 812.414062,677.475403 
	C798.862305,678.812866 785.521851,676.706482 772.201721,674.811768 
	C755.075806,672.375793 737.939880,670.014771 720.641113,669.497742 
	C713.520569,669.284912 706.353210,669.992004 699.235901,670.611633 
	C696.055298,670.888550 693.247131,670.686462 692.530151,667.235657 
	C691.724243,663.357056 694.554016,662.080811 697.820923,661.499084 
	C710.728271,659.200806 723.700378,659.815552 736.622437,660.998047 
	C752.188782,662.422424 767.645325,664.789490 783.488892,667.590271 
z"/>
<path fill="#000000" opacity="1.000000" stroke="none" 
	d="
M440.574524,96.371262 
	C439.789886,90.489319 439.091003,85.049095 438.307465,79.621078 
	C437.974823,77.316528 437.055878,74.753586 439.703644,73.370964 
	C442.535858,71.892036 445.427856,72.001839 448.031982,74.315239 
	C452.628174,78.398308 457.299683,82.396790 461.955383,86.412453 
	C462.557617,86.931892 463.253296,87.343018 464.305176,88.086845 
	C465.851410,83.396996 464.124786,79.249603 463.548584,75.167839 
	C463.001190,71.289558 464.281311,69.501373 467.951477,68.961739 
	C471.668335,68.415222 474.141754,69.512047 474.651764,73.616051 
	C475.901581,83.673859 477.201111,93.725502 478.484528,103.779137 
	C478.739594,105.777061 478.290833,107.450279 476.276184,108.304977 
	C473.498474,109.483383 470.613647,109.731323 468.284454,107.600838 
	C464.362152,104.013107 460.616394,100.224129 456.924530,96.396210 
	C455.122620,94.527847 453.609558,92.380882 451.965759,90.360008 
	C451.433167,90.726242 450.900604,91.092484 450.368011,91.458725 
	C451.003143,96.129333 451.631470,100.800888 452.275238,105.470314 
	C452.994781,110.689468 451.813110,112.230995 446.874451,112.802345 
	C442.049347,113.360558 442.020142,109.939735 441.674713,106.736145 
	C441.318298,103.430809 440.975067,100.124046 440.574524,96.371262 
z"/>
<path fill="#000000" opacity="1.000000" stroke="none" 
	d="
M609.257935,105.133392 
	C608.896118,107.010201 608.632080,108.484024 608.274109,109.934647 
	C607.737549,112.108765 607.973389,114.992577 604.934021,115.385307 
	C601.783875,115.792358 598.907227,114.843567 597.376282,111.733818 
	C594.955078,106.815681 592.706726,101.812553 590.296021,96.889069 
	C589.513672,95.291229 589.159119,93.390816 587.095032,91.981445 
	C584.679932,96.721634 584.983032,101.993248 583.480469,106.768822 
	C582.447144,110.053070 580.899170,111.436623 577.309753,110.653732 
	C573.614441,109.847733 572.255005,108.032333 573.062561,104.305046 
	C575.138367,94.723953 577.071411,85.112007 579.102600,75.521088 
	C579.614197,73.105476 579.851318,70.232407 583.201477,70.131187 
	C586.354370,70.035927 588.980164,71.088234 590.477356,74.296669 
	C593.275696,80.293449 596.266174,86.200562 599.614258,93.038559 
	C602.342407,88.672714 602.884644,84.608444 603.624817,80.729324 
	C604.470093,76.298790 606.722351,74.818237 611.007263,75.826790 
	C615.499756,76.884178 615.591980,79.667686 614.568054,83.430367 
	C612.649109,90.481354 611.047363,97.618637 609.257935,105.133392 
z"/>
<path fill="#000000" opacity="1.000000" stroke="none" 
	d="
M543.462036,68.186165 
	C556.426270,63.709602 568.033936,69.361610 571.559448,81.527641 
	C575.000061,93.400833 567.714417,104.983154 555.044800,107.781418 
	C545.676575,109.850533 535.180908,103.865173 531.955322,94.614243 
	C528.281433,84.077682 532.725281,73.622772 543.462036,68.186165 
M542.083313,87.499947 
	C542.753052,94.446350 546.216064,97.911690 551.950928,97.374207 
	C558.023254,96.805077 561.739868,91.572739 560.936279,84.724503 
	C560.343994,79.677177 555.739441,76.535759 549.897156,77.193199 
	C545.420044,77.697014 542.936829,80.714119 542.083313,87.499947 
z"/>
<path fill="#000000" opacity="1.000000" stroke="none" 
	d="
M397.093933,107.478165 
	C393.120605,94.051758 399.203369,82.765800 411.848083,79.431076 
	C423.190002,76.439926 433.857269,83.176834 436.680054,95.113678 
	C438.953369,104.726929 433.199768,115.437965 423.876129,118.949821 
	C413.056915,123.025009 402.834534,118.759842 397.093933,107.478165 
M408.934296,92.567253 
	C407.467133,94.727196 407.080383,97.138718 407.192688,99.696266 
	C407.489990,106.468346 412.281616,110.719330 418.161041,109.421700 
	C422.590393,108.444115 425.111023,105.631645 425.759186,101.251183 
	C426.378326,97.067017 425.691528,93.045036 421.792999,90.706833 
	C417.536102,88.153679 413.223358,88.465721 408.934296,92.567253 
z"/>
<path fill="#000000" opacity="1.000000" stroke="none" 
	d="
M543.196289,683.728882 
	C550.993469,683.728333 558.312317,683.764160 565.630127,683.693420 
	C568.699707,683.663696 571.708252,684.062439 571.893127,687.747925 
	C572.082520,691.523621 569.081909,692.830872 565.885132,693.042847 
	C554.071838,693.826355 542.238586,693.316650 530.531982,691.932129 
	C507.435455,689.200500 484.407013,685.890747 461.358215,682.762512 
	C459.620880,682.526672 457.702667,682.602051 456.235077,681.374329 
	C458.369812,674.575745 460.639160,673.306885 467.583038,674.135559 
	C491.173828,676.951050 514.515991,681.645813 538.237732,683.456726 
	C539.729065,683.570618 541.224243,683.634888 543.196289,683.728882 
z"/>
<path fill="#000000" opacity="1.000000" stroke="none" 
	d="
M872.734863,284.454956 
	C862.493530,298.024506 846.133484,298.361816 837.276123,285.504425 
	C832.280640,278.252991 832.571594,270.120605 838.108398,262.243408 
	C843.137207,255.089172 852.462708,251.382736 859.923157,253.573151 
	C868.166199,255.993347 874.646973,263.818085 875.255615,272.062408 
	C875.568298,276.297943 875.072083,280.370850 872.734863,284.454956 
M845.092529,273.630951 
	C845.210510,278.464172 846.455078,282.611420 851.940552,283.711975 
	C857.936401,284.914978 863.822876,281.143402 864.843628,275.621979 
	C865.839294,270.235962 862.862305,265.719482 857.469177,264.434326 
	C851.626526,263.042053 846.825195,266.312653 845.092529,273.630951 
z"/>
<path fill="#000000" opacity="1.000000" stroke="none" 
	d="
M728.241455,126.189880 
	C729.405579,125.432167 730.448792,124.965202 731.356140,125.463776 
	C738.185547,129.216614 745.413635,132.703873 750.031982,139.175507 
	C755.047485,146.203812 751.308350,156.636307 742.833618,158.905075 
	C737.601501,160.305740 736.666443,162.867264 737.511780,167.438644 
	C737.977905,169.959503 738.961548,173.368973 735.243469,173.919006 
	C731.953369,174.405716 728.921509,172.550278 728.024963,169.048096 
	C727.249939,166.020630 727.123474,162.817230 726.828308,159.680496 
	C726.653931,157.827118 726.702271,155.799957 724.713928,154.973877 
	C722.240479,153.946274 721.682678,156.371979 720.718201,157.730072 
	C718.330383,161.092178 715.377563,162.155365 711.682800,160.120667 
	C709.114990,158.706543 708.165588,156.623688 709.938538,153.913223 
	C715.937927,144.741394 721.952576,135.579483 728.241455,126.189880 
M739.565979,143.154465 
	C737.202271,141.642899 735.328430,138.190338 731.980652,140.113113 
	C730.124695,141.179047 728.188721,143.597626 729.987732,145.990402 
	C732.039185,148.718704 735.095337,150.619019 738.670593,149.450638 
	C741.574341,148.501694 741.382568,146.076614 739.565979,143.154465 
z"/>
<path fill="#000000" opacity="1.000000" stroke="none" 
	d="
M508.562073,85.242844 
	C508.784729,88.930939 506.720337,89.910248 503.928101,90.181732 
	C500.951477,90.471153 497.973389,90.760849 495.007721,91.141922 
	C493.275421,91.364510 492.294861,92.430351 492.485321,94.227226 
	C492.699707,96.250198 494.174042,96.392616 495.802948,96.260941 
	C499.943176,95.926270 504.096619,95.722351 508.224426,95.277298 
	C511.515015,94.922508 513.374268,96.276978 513.773621,99.473251 
	C514.161804,102.580513 513.600281,105.179222 509.688660,105.474792 
	C501.740967,106.075310 493.793182,106.679382 485.851898,107.357819 
	C482.778229,107.620415 481.537659,105.916985 481.390045,103.270599 
	C480.807465,92.825233 480.290314,82.375610 479.852051,71.923241 
	C479.743652,69.338173 481.309570,67.990448 483.857941,67.776398 
	C491.471283,67.136902 499.086761,66.521797 506.696777,65.844933 
	C510.791534,65.480728 512.539734,67.728889 512.767029,71.390244 
	C513.012146,75.338432 510.130646,75.935028 507.121918,76.062225 
	C503.136200,76.230736 499.142822,76.218643 495.157349,76.391281 
	C493.635101,76.457222 491.949219,76.820427 492.027618,78.816948 
	C492.107819,80.857819 493.856934,80.936325 495.367981,80.937637 
	C497.860657,80.939804 500.360138,80.906387 502.844604,80.723251 
	C505.965881,80.493179 508.045441,81.513794 508.562073,85.242844 
z"/>
<path fill="#000000" opacity="1.000000" stroke="none" 
	d="
M225.434723,204.551483 
	C217.647186,196.172455 217.711212,196.245117 225.897568,189.031845 
	C229.892334,185.511917 233.660324,181.725540 237.410110,177.940063 
	C239.719940,175.608276 241.883713,175.358765 244.325287,177.630737 
	C246.798294,179.932007 247.435699,182.273834 244.774811,184.883560 
	C242.872284,186.749512 241.052673,188.700974 239.126923,190.541962 
	C237.221771,192.363266 235.229797,194.093811 233.418701,195.734772 
	C234.855499,199.372238 236.772552,198.905792 238.689713,197.273499 
	C240.714371,195.549667 242.579880,193.635971 244.480881,191.770569 
	C247.115585,189.185165 249.491974,189.925949 251.863464,192.195541 
	C254.365479,194.590088 253.389252,196.561188 251.290436,198.529037 
	C249.467911,200.237854 247.657822,201.968262 245.957535,203.796356 
	C244.709579,205.138153 242.228073,206.369080 244.464432,208.651352 
	C246.797424,211.032242 248.330154,208.768890 249.828476,207.312897 
	C252.576126,204.642868 255.342834,201.981323 257.923584,199.153778 
	C260.595459,196.226410 262.980988,196.691177 265.592499,199.187927 
	C268.329681,201.804855 267.674255,203.937500 265.203339,206.347824 
	C260.076324,211.349167 255.186905,216.593628 250.075378,221.611404 
	C246.318359,225.299469 244.545288,225.144653 240.967484,221.285263 
	C235.873169,215.790024 230.777512,210.296005 225.434723,204.551483 
z"/>
<path fill="#000000" opacity="1.000000" stroke="none" 
	d="
M165.352371,365.241943 
	C161.785690,377.122101 161.800293,377.078064 150.350128,373.282379 
	C143.406876,370.980713 136.398026,368.877655 129.441040,366.616455 
	C123.870583,364.805939 123.406898,363.816681 125.080292,358.358124 
	C127.077538,351.843140 128.987167,345.300934 131.031082,338.800812 
	C131.835739,336.241760 132.653397,333.306824 136.440903,334.809418 
	C139.637817,336.077667 141.928757,337.911560 140.578430,342.000214 
	C139.277084,345.940552 138.230057,349.967682 137.162598,353.980957 
	C136.779083,355.422821 136.392166,357.079193 138.553192,357.571259 
	C140.397186,357.991119 141.357071,356.975342 141.810471,355.321503 
	C142.601685,352.435516 143.336853,349.533417 144.174484,346.661133 
	C144.907059,344.149078 146.292831,342.466827 149.259293,343.287506 
	C152.087021,344.069763 154.232529,345.382172 153.377090,348.890503 
	C152.629166,351.957947 151.932190,355.038574 151.133453,358.092651 
	C150.593521,360.157166 150.894516,361.784576 153.179657,362.391174 
	C155.521347,363.012817 156.012894,361.128082 156.494873,359.577026 
	C157.678589,355.767731 158.689377,351.905029 159.841583,348.085510 
	C160.523666,345.824432 161.196945,343.291565 164.458115,344.213348 
	C167.503845,345.074249 170.310242,346.456451 169.348877,350.415375 
	C168.172943,355.257782 166.749832,360.040222 165.352371,365.241943 
z"/>
<path fill="#000000" opacity="1.000000" stroke="none" 
	d="
M784.257690,165.061829 
	C789.733887,176.386841 780.751648,189.098846 773.169739,192.019806 
	C762.838928,195.999832 750.237427,191.091553 746.230225,181.408936 
	C741.696350,170.453674 746.810730,158.964401 758.630859,153.551254 
	C767.901001,149.305878 778.671692,154.018265 784.257690,165.061829 
M767.013855,182.839401 
	C775.466797,179.785049 778.180664,171.225571 772.369385,165.948227 
	C768.892822,162.791183 764.003418,162.070267 760.467102,164.476456 
	C756.648376,167.074814 754.378052,170.574768 755.442017,175.455017 
	C756.499268,180.304077 759.924011,182.639832 767.013855,182.839401 
z"/>
<path fill="#000000" opacity="1.000000" stroke="none" 
	d="
M706.494751,122.430534 
	C700.150452,119.346443 695.067688,120.775558 692.285217,126.129669 
	C689.677063,131.148331 690.977844,137.184250 695.255737,139.912842 
	C698.998352,142.300003 701.017212,141.958496 703.403442,138.522629 
	C702.895813,137.040970 701.420349,136.863693 700.273071,136.304657 
	C697.455994,134.932068 696.836975,132.894989 698.220703,130.165909 
	C699.650879,127.345291 701.760376,126.198982 704.739929,127.808815 
	C707.954468,129.545624 711.104248,131.402924 714.273987,133.222061 
	C716.692383,134.610001 716.045288,136.596375 715.054626,138.402969 
	C712.024231,143.928940 710.535400,151.049133 702.221680,151.345184 
	C693.966187,151.639160 687.199219,148.947556 682.847656,141.544647 
	C678.416870,134.006973 679.027161,126.501823 683.660461,119.411179 
	C691.574890,107.299477 709.552612,106.868103 717.592163,118.535599 
	C719.289185,120.998489 721.793518,123.879524 718.059265,126.773048 
	C714.809265,129.291306 711.729736,128.596100 708.775208,124.871628 
	C708.158264,124.093887 707.455627,123.384026 706.494751,122.430534 
z"/>
<path fill="#000000" opacity="1.000000" stroke="none" 
	d="
M718.804810,557.720825 
	C716.287231,562.864624 713.469482,567.358215 709.937134,571.412170 
	C707.645569,574.042175 705.329163,574.341003 702.589417,572.141418 
	C697.200134,567.814819 693.167908,562.279236 689.015686,556.872498 
	C687.289490,554.624817 688.394775,552.317749 690.128662,550.567505 
	C696.462158,544.174072 702.626770,537.641724 708.269287,530.615540 
	C710.315613,528.067383 712.813171,528.156860 715.215881,530.349548 
	C715.461548,530.573792 715.674927,530.833130 715.916504,531.062256 
	C726.543884,541.139954 726.641113,541.974548 718.804810,557.720825 
z"/>
<path fill="#000000" opacity="1.000000" stroke="none" 
	d="
M880.931641,316.951111 
	C885.287659,314.778900 889.287659,312.740021 893.329224,310.787109 
	C896.983154,309.021423 898.446960,311.683319 899.851746,314.215607 
	C901.321472,316.864807 900.849854,319.186920 897.971130,320.382416 
	C890.916260,323.312195 884.454651,327.619385 876.984131,329.559204 
	C863.093384,333.166046 850.371155,321.427063 853.923340,308.340759 
	C855.229553,303.528625 858.437927,300.165466 862.615662,297.873596 
	C869.023315,294.358307 875.609009,291.165680 882.142517,287.882568 
	C885.908447,285.990204 887.642334,288.508911 889.148254,291.295746 
	C890.787720,294.329803 889.624695,296.308838 886.705750,297.670959 
	C881.735840,299.990173 876.817749,302.420990 871.841492,304.726105 
	C865.291382,307.760193 863.050476,311.177734 864.944336,315.436707 
	C866.994446,320.047211 872.011108,321.084320 878.345581,318.201141 
	C879.101990,317.856903 879.844604,317.482422 880.931641,316.951111 
z"/>
<path fill="#000000" opacity="1.000000" stroke="none" 
	d="
M333.902771,540.093872 
	C336.808380,543.103516 339.467804,545.857727 342.151520,548.588074 
	C345.299988,551.791199 345.993103,555.052917 342.668549,558.630554 
	C339.044708,562.530273 335.536163,566.536804 331.945892,570.468140 
	C329.137573,573.543274 326.254242,573.633911 323.487793,570.435120 
	C316.930847,562.853516 313.370483,553.686340 310.099243,544.427002 
	C309.287537,542.129456 310.835205,539.925842 312.242645,538.013306 
	C320.633392,526.611694 322.554688,526.524902 331.441010,537.132507 
	C332.189362,538.025757 332.925507,538.929138 333.902771,540.093872 
z"/>
<path fill="#000000" opacity="1.000000" stroke="none" 
	d="
M200.462692,276.716583 
	C201.760895,278.824982 203.666199,280.490173 202.742950,282.842377 
	C201.844223,285.132141 200.705231,287.728149 197.995544,288.174927 
	C195.470322,288.591339 194.344406,286.178040 193.226913,284.400574 
	C187.303375,274.978607 181.483627,265.491486 175.586945,256.052521 
	C174.053314,253.597580 173.497070,251.350464 175.470520,248.740067 
	C177.309921,246.306976 179.317886,245.713364 182.342758,246.125748 
	C192.879852,247.562256 203.351852,249.289139 213.638153,251.995987 
	C216.214569,252.673965 219.790497,252.822525 219.026993,257.013611 
	C218.316559,260.913361 216.250031,263.113007 211.733261,262.593994 
	C205.670349,261.897369 198.975174,270.185486 200.462692,276.716583 
M191.283676,262.140625 
	C194.774368,265.252625 195.147614,262.032196 196.416153,259.760925 
	C194.141922,258.392487 192.103058,257.751831 189.354065,258.279694 
	C189.965515,259.594910 190.436844,260.608704 191.283676,262.140625 
z"/>
<path fill="#000000" opacity="1.000000" stroke="none" 
	d="
M175.118164,336.963623 
	C173.087357,339.948792 170.927261,342.274902 167.635651,343.002380 
	C164.537949,343.687042 161.951111,342.662109 160.503281,339.770111 
	C159.111084,336.989258 161.098953,335.465851 163.084885,334.079895 
	C165.314072,332.524200 167.166229,330.612701 168.238876,328.102814 
	C168.886978,326.586334 169.575485,324.763489 167.699188,323.649292 
	C166.101105,322.700256 164.829880,323.887085 163.822769,325.023468 
	C162.721161,326.266449 161.820114,327.685364 160.742233,328.951508 
	C155.221756,335.436066 148.923874,336.841339 143.246475,332.894867 
	C136.874405,328.465515 135.628464,321.319336 139.949387,313.912842 
	C141.469681,311.306946 143.332291,308.966919 145.520172,306.887817 
	C147.789047,304.731812 150.161041,304.343689 152.576492,306.603088 
	C155.004044,308.873810 155.553070,311.246979 153.029388,313.931854 
	C151.442734,315.619904 149.991974,317.464294 148.690964,319.381531 
	C147.910049,320.532318 147.795166,322.063812 149.094254,322.984497 
	C150.573135,324.032623 151.557846,322.775330 152.426605,321.777435 
	C154.174438,319.769867 155.722397,317.568542 157.606018,315.702820 
	C162.295639,311.057678 167.039124,309.977264 171.567291,312.277771 
	C176.960464,315.017792 180.057861,321.261505 178.916992,327.388489 
	C178.304169,330.679565 177.154373,333.808807 175.118164,336.963623 
z"/>
<path fill="#000000" opacity="1.000000" stroke="none" 
	d="
M183.939484,286.507080 
	C184.554398,290.511627 183.678131,293.884460 182.125443,297.048553 
	C180.580734,300.196472 181.230911,302.430573 184.298615,304.068237 
	C187.523270,305.789703 189.151596,307.923950 186.737457,311.636963 
	C184.381363,315.260681 181.896606,315.254547 178.382477,313.179352 
	C170.238907,308.370239 161.954361,303.791016 153.621170,299.315552 
	C149.447052,297.073792 148.845703,294.121307 151.076218,290.299805 
	C152.914108,287.150970 154.786636,284.010406 156.849335,281.007324 
	C160.383560,275.861938 165.134720,272.497406 171.598816,273.889709 
	C178.052765,275.279785 182.562622,279.227234 183.939484,286.507080 
M166.625046,285.828217 
	C164.756516,287.213959 162.962296,288.650665 162.777008,291.780060 
	C165.639084,292.574646 167.471375,296.885223 171.221222,294.638123 
	C173.275452,293.407104 174.442566,290.644623 173.472122,288.018402 
	C172.419739,285.170380 169.980240,284.799744 166.625046,285.828217 
z"/>
<path fill="#000000" opacity="1.000000" stroke="none" 
	d="
M774.125732,203.452499 
	C773.500488,199.461105 773.755859,196.022217 778.121216,195.317215 
	C782.224854,194.654495 783.360535,197.944901 784.354980,201.074738 
	C785.060364,203.294952 785.717957,205.576035 787.754028,207.026642 
	C788.915894,207.854401 790.276306,208.136002 791.506897,207.347031 
	C792.987549,206.397690 792.479248,205.020340 791.817139,203.813248 
	C790.537109,201.479889 789.249146,199.145386 787.837219,196.891083 
	C784.931396,192.251328 785.758179,188.061676 789.155518,184.091797 
	C792.876953,179.743164 797.828491,178.056473 802.517456,179.917480 
	C808.564209,182.317352 812.744812,186.765228 814.974915,192.817047 
	C816.229553,196.221863 815.962219,199.693268 811.786804,200.966858 
	C807.916687,202.147308 805.901672,199.799377 804.899109,196.324646 
	C804.760803,195.845276 804.714050,195.326141 804.503296,194.883301 
	C803.357300,192.476059 802.091736,189.152451 798.931641,190.632233 
	C795.696411,192.147202 798.817322,194.580261 799.493958,196.510849 
	C800.205627,198.541641 801.360962,200.415359 802.096619,202.439743 
	C803.720398,206.908157 804.125000,211.349777 800.151672,214.874344 
	C795.941711,218.608826 791.034485,219.618454 785.756287,217.432709 
	C779.633911,214.897324 776.044861,210.094574 774.125732,203.452499 
z"/>
<path fill="#000000" opacity="1.000000" stroke="none" 
	d="
M874.564026,353.055237 
	C875.875916,350.255432 877.298584,348.242096 880.454590,349.361908 
	C883.568665,350.466858 884.207214,352.715942 883.490845,355.759003 
	C882.875427,358.372955 882.903442,361.082428 883.657349,363.670715 
	C884.139709,365.326599 885.223999,366.827454 887.207947,366.574432 
	C889.361633,366.299774 889.632446,364.450714 889.443665,362.741730 
	C889.130981,359.911987 889.058533,357.131897 889.475891,354.292542 
	C890.889160,344.677490 900.678101,340.570953 908.508057,346.375824 
	C913.849487,350.335754 916.676758,359.496582 914.487854,365.771790 
	C913.395813,368.902252 911.564941,371.274597 907.884766,370.286163 
	C904.183777,369.292084 904.262939,366.641510 905.403320,363.528351 
	C905.888123,362.204773 905.796509,360.534607 905.529358,359.103607 
	C905.151855,357.080811 904.250916,355.061615 901.673401,355.389862 
	C899.200928,355.704773 899.355530,357.842834 899.317627,359.676392 
	C899.286743,361.174103 899.340515,362.673309 899.339417,364.171875 
	C899.332825,372.885071 895.763916,377.283264 888.234436,377.865936 
	C881.321899,378.400848 874.750305,372.820953 873.831604,365.338776 
	C873.345825,361.382599 873.282043,357.363434 874.564026,353.055237 
z"/>
<path fill="#000000" opacity="1.000000" stroke="none" 
	d="
M213.588867,234.480560 
	C222.217926,238.091675 227.289139,235.381805 228.885681,226.506866 
	C229.597565,222.549698 232.401443,221.146027 235.689758,221.405136 
	C239.495102,221.704987 240.133102,224.928940 239.884918,228.145508 
	C239.178513,237.300934 231.443329,245.758743 222.678024,247.075043 
	C212.894241,248.544312 204.006042,243.568832 200.110580,234.442154 
	C195.010925,222.494171 200.790634,209.476440 212.810410,205.860992 
	C215.700394,204.991684 218.666489,204.556488 219.848175,208.199112 
	C220.925095,211.518723 220.362839,214.075378 216.354431,215.624466 
	C207.718597,218.961884 206.432602,227.676056 213.588867,234.480560 
z"/>
<path fill="#000000" opacity="1.000000" stroke="none" 
	d="
M634.835266,115.609482 
	C633.609924,118.559807 634.027588,122.288971 629.723206,122.400589 
	C624.539001,122.535027 622.100342,119.496605 623.599854,114.507507 
	C625.370850,108.615479 627.119690,102.706322 629.208374,96.923904 
	C630.649231,92.934967 630.006104,90.693832 625.526794,89.794525 
	C623.373901,89.362305 620.614502,88.968193 619.995605,86.205589 
	C619.507385,84.026215 620.299194,81.887177 621.808533,80.208763 
	C623.125000,78.744781 624.793823,79.182648 626.449463,79.681976 
	C634.249207,82.034348 642.069214,84.319893 649.864197,86.687553 
	C653.083679,87.665428 655.954895,88.919441 654.461304,93.311981 
	C653.100769,97.312843 650.417236,97.890022 646.995972,96.312370 
	C642.531128,94.253433 640.250549,95.648659 639.168823,100.361229 
	C638.017456,105.376694 636.386658,110.282082 634.835266,115.609482 
z"/>
<path fill="#000000" opacity="1.000000" stroke="none" 
	d="
M665.816284,671.969482 
	C685.760864,674.874695 704.815979,681.056763 724.872131,680.028015 
	C727.738953,679.880981 730.569031,681.087402 730.611938,684.296753 
	C730.661865,688.032959 727.681946,689.087769 724.370789,689.205322 
	C711.142273,689.674927 698.227783,687.271484 685.311829,684.920288 
	C679.267151,683.819946 673.252258,682.555969 667.213806,681.419800 
	C661.297852,680.306641 660.100403,678.834167 660.099670,672.380127 
	C661.757935,671.235107 663.608093,671.919861 665.816284,671.969482 
z"/>
<path fill="#000000" opacity="1.000000" stroke="none" 
	d="
M828.490967,265.803833 
	C826.018555,266.398102 824.628296,265.181976 823.478394,263.707214 
	C819.383850,258.455994 815.331116,253.171692 811.307007,247.866211 
	C809.470154,245.444427 808.906799,242.990280 811.927368,241.032745 
	C820.475098,235.493103 828.057739,228.699142 836.055054,222.449646 
	C839.490601,219.764938 841.776611,220.227982 844.372864,223.493713 
	C847.049072,226.860214 846.048096,229.192383 843.036987,231.428711 
	C837.692017,235.398376 832.523254,239.628174 826.992249,243.316376 
	C823.299927,245.778503 823.491150,247.946869 826.149048,250.854630 
	C827.604492,252.446915 828.746826,254.322632 830.174744,255.943344 
	C833.526001,259.747192 833.446777,262.994537 828.490967,265.803833 
z"/>
<path fill="#000000" opacity="1.000000" stroke="none" 
	d="
M875.038818,336.016785 
	C882.952271,332.858765 890.545288,329.932098 898.042236,326.777222 
	C901.365723,325.378632 903.505554,326.205292 904.802917,329.418610 
	C906.093689,332.615417 905.796570,335.123718 902.043396,336.591522 
	C892.768372,340.218842 883.552368,343.998718 874.343323,347.791901 
	C870.750183,349.271912 868.058472,349.186310 866.387878,344.944305 
	C864.671570,340.586121 866.778687,338.807404 870.458984,337.663696 
	C871.884399,337.220734 873.273621,336.661530 875.038818,336.016785 
z"/>
<path fill="#000000" opacity="1.000000" stroke="none" 
	d="
M650.244263,130.102173 
	C647.271851,128.609833 647.074951,126.519440 648.020630,124.037804 
	C651.511353,114.877640 655.013306,105.721603 658.458557,96.544304 
	C659.791931,92.992455 661.771973,91.384651 665.685974,93.187546 
	C669.189087,94.801155 670.252258,96.620773 668.560120,100.562515 
	C664.893860,109.102982 661.693298,117.852028 658.551697,126.605293 
	C657.042542,130.810410 654.687622,132.181396 650.244263,130.102173 
z"/>
<path fill="#000000" opacity="1.000000" stroke="none" 
	d="
M364.129761,691.643677 
	C352.765686,692.496948 341.816498,693.244995 331.035248,690.273499 
	C330.236420,690.053345 329.397491,689.959106 328.619598,689.685730 
	C325.537323,688.602600 322.147552,687.289185 323.283752,683.231262 
	C324.426361,679.150452 327.809937,679.635803 331.081726,680.706299 
	C341.137573,683.996460 351.445709,682.992310 361.729675,682.474426 
	C363.990997,682.360474 367.294220,680.330811 368.133087,683.687622 
	C368.847382,686.545959 368.387634,690.136292 364.129761,691.643677 
z"/>
<path fill="#000000" opacity="1.000000" stroke="none" 
	d="
M816.158813,232.142166 
	C813.603760,234.077789 811.612366,233.635300 809.762329,231.631287 
	C807.745239,229.446381 805.734192,227.252548 803.637085,225.145706 
	C800.883423,222.379181 801.513306,219.929855 804.101929,217.501251 
	C806.926819,214.850998 809.132690,216.043076 811.202393,218.515884 
	C813.216736,220.922562 815.270691,223.296341 817.272827,225.713028 
	C819.221741,228.065506 819.142822,230.191925 816.158813,232.142166 
z"/>
<path fill="#000000" opacity="1.000000" stroke="none" 
	d="
M470.607635,645.505371 
	C470.217407,639.182434 470.821136,638.553223 476.300171,639.637268 
	C482.538727,640.871704 488.815491,642.050232 494.449158,645.861511 
	C486.529022,647.046204 478.701660,648.265259 470.607635,645.505371 
z"/>
<path fill="#000000" opacity="1.000000" stroke="none" 
	d="
M549.971191,647.219727 
	C545.671326,646.877686 541.707886,648.199219 537.582886,646.363464 
	C539.356567,643.431213 542.239319,643.488220 544.576233,642.766052 
	C548.518188,641.548035 552.568054,640.676636 556.579285,639.686523 
	C559.247498,639.027893 560.758484,640.115967 560.970642,642.837402 
	C561.167725,645.365356 560.170898,647.046509 557.406189,647.134888 
	C555.091248,647.208923 552.773499,647.192993 549.971191,647.219727 
z"/>
<path fill="#000000" opacity="1.000000" stroke="none" 
	d="
M492.094727,59.199821 
	C493.841766,57.164780 495.187866,55.216789 496.915070,53.703873 
	C499.454865,51.479141 502.046448,52.786358 504.069824,54.585175 
	C506.502350,56.747742 504.438049,58.478268 502.870575,59.913441 
	C500.498474,62.085327 498.833038,65.363899 494.886200,65.228912 
	C493.171417,65.170258 491.458527,65.030228 490.526367,63.402515 
	C489.567413,61.727962 491.067810,60.676277 492.094727,59.199821 
z"/>
</svg>